<mxfile host="app.diagrams.net" modified="2021-04-03T03:53:37.475Z" agent="5.0 (X11; Linux x86_64) AppleWebKit/537.36 (KHTML, like Gecko) Chrome/89.0.4389.72 Safari/537.36" etag="TeO2f0-nmG_v2JoKembz" version="14.5.6" type="github">
  <diagram id="KVffxs535r2qTGa0Yr8o" name="Page-1">
    <mxGraphModel dx="1673" dy="911" grid="1" gridSize="10" guides="1" tooltips="1" connect="1" arrows="1" fold="1" page="1" pageScale="1" pageWidth="827" pageHeight="583" math="0" shadow="0">
      <root>
        <mxCell id="0" />
        <mxCell id="1" parent="0" />
        <mxCell id="LgJa-fEShEm3lUHcOYE0-1" value="main()" style="shape=process;whiteSpace=wrap;html=1;backgroundOutline=1;" vertex="1" parent="1">
          <mxGeometry x="120" y="293" width="150" height="20" as="geometry" />
        </mxCell>
        <mxCell id="LgJa-fEShEm3lUHcOYE0-17" style="edgeStyle=orthogonalEdgeStyle;rounded=0;orthogonalLoop=1;jettySize=auto;html=1;exitX=0.5;exitY=1;exitDx=0;exitDy=0;" edge="1" parent="1" source="LgJa-fEShEm3lUHcOYE0-2" target="LgJa-fEShEm3lUHcOYE0-3">
          <mxGeometry relative="1" as="geometry" />
        </mxCell>
        <mxCell id="LgJa-fEShEm3lUHcOYE0-2" value="connect_server()" style="rounded=1;whiteSpace=wrap;html=1;" vertex="1" parent="1">
          <mxGeometry x="120" y="335" width="150" height="18" as="geometry" />
        </mxCell>
        <mxCell id="LgJa-fEShEm3lUHcOYE0-12" style="edgeStyle=orthogonalEdgeStyle;rounded=0;orthogonalLoop=1;jettySize=auto;html=1;exitX=1;exitY=0.5;exitDx=0;exitDy=0;entryX=0;entryY=0.5;entryDx=0;entryDy=0;" edge="1" parent="1" source="LgJa-fEShEm3lUHcOYE0-3" target="LgJa-fEShEm3lUHcOYE0-6">
          <mxGeometry relative="1" as="geometry" />
        </mxCell>
        <mxCell id="LgJa-fEShEm3lUHcOYE0-13" style="edgeStyle=orthogonalEdgeStyle;rounded=0;orthogonalLoop=1;jettySize=auto;html=1;exitX=1;exitY=0.5;exitDx=0;exitDy=0;entryX=0;entryY=0.5;entryDx=0;entryDy=0;" edge="1" parent="1" source="LgJa-fEShEm3lUHcOYE0-3" target="LgJa-fEShEm3lUHcOYE0-7">
          <mxGeometry relative="1" as="geometry" />
        </mxCell>
        <mxCell id="LgJa-fEShEm3lUHcOYE0-14" style="edgeStyle=orthogonalEdgeStyle;rounded=0;orthogonalLoop=1;jettySize=auto;html=1;exitX=1;exitY=0.5;exitDx=0;exitDy=0;entryX=0;entryY=0.5;entryDx=0;entryDy=0;" edge="1" parent="1" source="LgJa-fEShEm3lUHcOYE0-3" target="LgJa-fEShEm3lUHcOYE0-8">
          <mxGeometry relative="1" as="geometry" />
        </mxCell>
        <mxCell id="LgJa-fEShEm3lUHcOYE0-18" style="edgeStyle=orthogonalEdgeStyle;rounded=0;orthogonalLoop=1;jettySize=auto;html=1;exitX=0.5;exitY=1;exitDx=0;exitDy=0;entryX=0.5;entryY=0;entryDx=0;entryDy=0;" edge="1" parent="1" source="LgJa-fEShEm3lUHcOYE0-3" target="LgJa-fEShEm3lUHcOYE0-4">
          <mxGeometry relative="1" as="geometry" />
        </mxCell>
        <mxCell id="LgJa-fEShEm3lUHcOYE0-3" value="create_threads()" style="rounded=1;whiteSpace=wrap;html=1;" vertex="1" parent="1">
          <mxGeometry x="120" y="373" width="150" height="18" as="geometry" />
        </mxCell>
        <mxCell id="LgJa-fEShEm3lUHcOYE0-4" value="create_tasks()" style="rounded=1;whiteSpace=wrap;html=1;" vertex="1" parent="1">
          <mxGeometry x="120" y="413" width="150" height="18" as="geometry" />
        </mxCell>
        <mxCell id="LgJa-fEShEm3lUHcOYE0-19" style="edgeStyle=orthogonalEdgeStyle;rounded=0;orthogonalLoop=1;jettySize=auto;html=1;exitX=0.5;exitY=0;exitDx=0;exitDy=0;entryX=0;entryY=0.5;entryDx=0;entryDy=0;" edge="1" parent="1" source="LgJa-fEShEm3lUHcOYE0-6" target="LgJa-fEShEm3lUHcOYE0-16">
          <mxGeometry relative="1" as="geometry" />
        </mxCell>
        <mxCell id="LgJa-fEShEm3lUHcOYE0-6" value="Thread 1" style="rounded=1;whiteSpace=wrap;html=1;" vertex="1" parent="1">
          <mxGeometry x="340" y="345" width="120" height="18" as="geometry" />
        </mxCell>
        <mxCell id="LgJa-fEShEm3lUHcOYE0-7" value="Thread 2" style="rounded=1;whiteSpace=wrap;html=1;" vertex="1" parent="1">
          <mxGeometry x="340" y="373" width="120" height="18" as="geometry" />
        </mxCell>
        <mxCell id="LgJa-fEShEm3lUHcOYE0-8" value="Thread ..." style="rounded=1;whiteSpace=wrap;html=1;" vertex="1" parent="1">
          <mxGeometry x="340" y="401" width="120" height="18" as="geometry" />
        </mxCell>
        <mxCell id="LgJa-fEShEm3lUHcOYE0-16" value="main()" style="shape=process;whiteSpace=wrap;html=1;backgroundOutline=1;" vertex="1" parent="1">
          <mxGeometry x="520" y="293" width="210" height="20" as="geometry" />
        </mxCell>
        <mxCell id="LgJa-fEShEm3lUHcOYE0-20" value="receive_message_from_server()" style="rounded=1;whiteSpace=wrap;html=1;" vertex="1" parent="1">
          <mxGeometry x="550" y="327" width="180" height="18" as="geometry" />
        </mxCell>
        <mxCell id="LgJa-fEShEm3lUHcOYE0-21" value="send_message_to_server()" style="rounded=1;whiteSpace=wrap;html=1;" vertex="1" parent="1">
          <mxGeometry x="550" y="355" width="180" height="18" as="geometry" />
        </mxCell>
        <mxCell id="LgJa-fEShEm3lUHcOYE0-22" value="0" style="rounded=1;whiteSpace=wrap;html=1;" vertex="1" parent="1">
          <mxGeometry x="520" y="327" width="20" height="18" as="geometry" />
        </mxCell>
        <mxCell id="LgJa-fEShEm3lUHcOYE0-23" value="1" style="rounded=1;whiteSpace=wrap;html=1;" vertex="1" parent="1">
          <mxGeometry x="520" y="355" width="20" height="18" as="geometry" />
        </mxCell>
        <mxCell id="LgJa-fEShEm3lUHcOYE0-24" value="recv_msg()" style="rounded=1;whiteSpace=wrap;html=1;" vertex="1" parent="1">
          <mxGeometry x="520" y="153" width="120" height="18" as="geometry" />
        </mxCell>
        <mxCell id="LgJa-fEShEm3lUHcOYE0-25" value="msg_format()" style="rounded=1;whiteSpace=wrap;html=1;" vertex="1" parent="1">
          <mxGeometry x="520" y="203" width="120" height="18" as="geometry" />
        </mxCell>
        <mxCell id="LgJa-fEShEm3lUHcOYE0-26" value="&lt;ul&gt;&lt;li&gt;receive message from server&lt;/li&gt;&lt;/ul&gt;" style="text;html=1;strokeColor=none;fillColor=none;align=center;verticalAlign=middle;whiteSpace=wrap;rounded=0;" vertex="1" parent="1">
          <mxGeometry x="520" y="173" width="200" height="20" as="geometry" />
        </mxCell>
        <mxCell id="LgJa-fEShEm3lUHcOYE0-27" value="&lt;ul&gt;&lt;li&gt;format message before sending&lt;/li&gt;&lt;/ul&gt;" style="text;html=1;strokeColor=none;fillColor=none;align=center;verticalAlign=middle;whiteSpace=wrap;rounded=0;" vertex="1" parent="1">
          <mxGeometry x="520" y="221" width="220" height="20" as="geometry" />
        </mxCell>
      </root>
    </mxGraphModel>
  </diagram>
</mxfile>
